<svg xmlns="http://www.w3.org/2000/svg" width="1080" height="960" viewBox="0 0 1080 960">
  <defs>
    <style>
      .cls-1, .cls-2 {
        fill: #e6e6e6;
      }

      .cls-2, .cls-4 {
        fill-rule: evenodd;
      }

      .cls-3, .cls-4 {
        fill: #fff;
      }

      .cls-5 {
        fill: #a9a9a9;
      }
    </style>
  </defs>
  <ellipse id="Ellipse_1_copy" data-name="Ellipse 1 copy" class="cls-1" cx="324.5" cy="256" rx="296.5" ry="240"/>
  <path id="Shape_1_copy" data-name="Shape 1 copy" class="cls-2" d="M136,444.654c0,12.637,1.405,24.317-7.021,34.7-3.885,4.788-14.647,7.034-16.178,12.7-2.2,3.049-2.486,9.389-.306,12.412C117.062,517.13,135.664,518,147.6,518c27.251,0,75.4-19.823,75.4-48.8-8.432-31.17-60.663-54.242-86.694-30.185C136,440.619,136.134,443.258,136,444.654Z"/>
  <ellipse class="cls-3" cx="649.5" cy="595" rx="410.5" ry="334"/>
  <path class="cls-4" d="M912.16,824.768c0,22.439-2.294,43.177,11.473,61.61,6.349,8.5,23.934,12.489,26.437,22.54,3.594,5.414,4.061,16.672.5,22.039C943.1,953.455,912.7,955,893.205,955,848.677,955,770,919.8,770,868.346c13.779-55.345,99.125-96.31,141.661-53.6C912.163,817.6,911.935,822.29,912.16,824.768Z"/>
  <circle class="cls-5" cx="481" cy="590" r="45"/>
  <circle id="Ellipse_2_copy" data-name="Ellipse 2 copy" class="cls-5" cx="641" cy="590" r="45"/>
  <circle id="Ellipse_2_copy_2" data-name="Ellipse 2 copy 2" class="cls-5" cx="806" cy="590" r="45"/>
</svg>
